<svg id="visual" viewBox="0 0 1920 1068" width="1920" height="1068" xmlns="http://www.w3.org/2000/svg" xmlns:xlink="http://www.w3.org/1999/xlink" version="1.1"><rect x="0" y="0" width="1920" height="1068" fill="#58b6fc"></rect><path d="M0 779L274 842L549 731L823 780L1097 737L1371 796L1646 780L1920 718L1920 1069L1646 1069L1371 1069L1097 1069L823 1069L549 1069L274 1069L0 1069Z" fill="#7675fe"></path><path d="M0 845L274 835L549 849L823 790L1097 883L1371 781L1646 846L1920 867L1920 1069L1646 1069L1371 1069L1097 1069L823 1069L549 1069L274 1069L0 1069Z" fill="#7c64ff"></path><path d="M0 823L274 888L549 854L823 830L1097 842L1371 922L1646 845L1920 901L1920 1069L1646 1069L1371 1069L1097 1069L823 1069L549 1069L274 1069L0 1069Z" fill="#874fff"></path><path d="M0 922L274 940L549 966L823 959L1097 909L1371 934L1646 892L1920 922L1920 1069L1646 1069L1371 1069L1097 1069L823 1069L549 1069L274 1069L0 1069Z" fill="#874fff"></path><path d="M0 945L274 972L549 927L823 980L1097 1001L1371 991L1646 936L1920 938L1920 1069L1646 1069L1371 1069L1097 1069L823 1069L549 1069L274 1069L0 1069Z" fill="#7c64ff"></path><path d="M0 1006L274 990L549 1033L823 1036L1097 986L1371 1018L1646 1026L1920 991L1920 1069L1646 1069L1371 1069L1097 1069L823 1069L549 1069L274 1069L0 1069Z" fill="#7675fe"></path></svg>